<svg xmlns="http://www.w3.org/2000/svg" viewBox="0 0 100 100" width="100px" height="100px"><path fill="#f15b6c" d="M10,18.834v27.802c0,0.884,0.293,1.743,0.833,2.443l24.966,32.364 C36.556,82.425,37.726,83,38.966,83H61.91c0.84,0,1.306-0.973,0.779-1.628l-50.91-63.166C11.187,17.472,10,17.891,10,18.834z"/><path fill="#1f212b" d="M61.91,84H38.966c-1.539,0-3.019-0.728-3.959-1.945L10.041,49.69C9.37,48.82,9,47.735,9,46.637 V18.834c0-0.859,0.524-1.6,1.334-1.886c0.811-0.286,1.683-0.038,2.223,0.631l50.91,63.165c0.488,0.605,0.583,1.417,0.247,2.119 C63.378,83.564,62.687,84,61.91,84z M11,18.834v27.803c0,0.659,0.222,1.311,0.625,1.833l24.966,32.363 C37.155,81.563,38.043,82,38.966,82H61.91L11,18.834z"/><g><path fill="#f15b6c" d="M57.073,60h22.031c1.2,0,2.336-0.539,3.096-1.467l6.896-8.428C89.681,49.39,90,48.496,90,47.572 V18.864c0-0.947-1.193-1.363-1.783-0.623L56.291,58.377C55.769,59.033,56.236,60,57.073,60z"/><path fill="#1f212b" d="M79.104,61H57.073c-0.775,0-1.465-0.434-1.802-1.132c-0.336-0.697-0.246-1.508,0.237-2.113 l31.926-40.136c0.537-0.675,1.41-0.929,2.225-0.644C90.474,17.26,91,18.001,91,18.863v28.709c0,1.15-0.401,2.275-1.13,3.166 l-6.896,8.428C82.021,60.332,80.611,61,79.104,61z M57.073,59h22.031c0.904,0,1.75-0.401,2.322-1.1l6.896-8.428 c0.437-0.535,0.678-1.21,0.678-1.9V18.863L57.073,59z"/></g></svg>